<svg xmlns="http://www.w3.org/2000/svg" viewBox="0 0 512 512" id="container-crane"><path fill="#faf7f5" d="M446 252a7.49 7.49 0 0 1-4-1.14l-186-116-186 116a7.5 7.5 0 1 1-8-12.72l190-118.5a7.48 7.48 0 0 1 7.94 0l190 118.5A7.5 7.5 0 0 1 446 252Z"></path><rect width="475" height="235" x="18.5" y="277" fill="#7dd9c2" rx="7.5" ry="7.5"></rect><path fill="#5cd0b3" d="M38.5 314.5A7.5 7.5 0 0 1 46 307h447.5v-22.5a7.5 7.5 0 0 0-7.5-7.5H26a7.5 7.5 0 0 0-7.5 7.5v220A7.5 7.5 0 0 0 26 512h12.5Z"></path><path fill="#5cd0b3" d="M66 472a7.5 7.5 0 0 1-7.5-7.5v-140a7.5 7.5 0 0 1 15 0v140A7.5 7.5 0 0 1 66 472zm63.33 0a7.5 7.5 0 0 1-7.5-7.5v-140a7.5 7.5 0 1 1 15 0v140a7.5 7.5 0 0 1-7.5 7.5zm63.34 0a7.5 7.5 0 0 1-7.5-7.5v-140a7.5 7.5 0 0 1 15 0v140a7.5 7.5 0 0 1-7.5 7.5zm63.33 0a7.5 7.5 0 0 1-7.5-7.5v-140a7.5 7.5 0 0 1 15 0v140a7.5 7.5 0 0 1-7.5 7.5zm63.33 0a7.5 7.5 0 0 1-7.5-7.5v-140a7.5 7.5 0 0 1 15 0v140a7.5 7.5 0 0 1-7.5 7.5zm63.34 0a7.5 7.5 0 0 1-7.5-7.5v-140a7.5 7.5 0 0 1 15 0v140a7.5 7.5 0 0 1-7.5 7.5zm63.33 0a7.5 7.5 0 0 1-7.5-7.5v-140a7.5 7.5 0 0 1 15 0v140a7.5 7.5 0 0 1-7.5 7.5z"></path><path fill="#8aa8bd" d="M286 133.5h-60a7.5 7.5 0 0 1-7.5-7.5v-23.75a7.5 7.5 0 0 1 15 0v16.25h45v-30H256a7.5 7.5 0 0 1-7.5-7.5V37.5a7.5 7.5 0 0 1 15 0v36H286a7.5 7.5 0 0 1 7.5 7.5v45a7.5 7.5 0 0 1-7.5 7.5Z"></path><path fill="#ffcd69" d="M66 237H36a17.52 17.52 0 0 0-17.5 17.5v30A7.5 7.5 0 0 0 26 292h40a7.5 7.5 0 0 0 7.5-7.5v-40A7.5 7.5 0 0 0 66 237zm410 0h-30a7.5 7.5 0 0 0-7.5 7.5v40a7.5 7.5 0 0 0 7.5 7.5h40a7.5 7.5 0 0 0 7.5-7.5v-30A17.52 17.52 0 0 0 476 237z"></path><path fill="#ffc144" d="M56 257h17.5v-12.5A7.5 7.5 0 0 0 66 237H36a17.52 17.52 0 0 0-17.5 17.5v30A7.5 7.5 0 0 0 26 292h12.5v-17.5A17.52 17.52 0 0 1 56 257zm410 0h27.5v-2.5A17.52 17.52 0 0 0 476 237h-30a7.5 7.5 0 0 0-7.5 7.5v40a7.5 7.5 0 0 0 7.5 7.5h12.5v-27.5a7.5 7.5 0 0 1 7.5-7.5z"></path><path fill="#8aa8bd" d="M504.5 292H7.5a7.5 7.5 0 0 1 0-15h497a7.5 7.5 0 0 1 0 15zm0 220H7.5a7.5 7.5 0 0 1 0-15h497a7.5 7.5 0 0 1 0 15z"></path><path fill="#ffcd69" d="M386 0H126a7.5 7.5 0 0 0-7.5 7.5v20A17.52 17.52 0 0 0 136 45h240a17.52 17.52 0 0 0 17.5-17.5v-20A7.5 7.5 0 0 0 386 0Z"></path><path fill="#ffc144" d="M156 35a17.52 17.52 0 0 1-17.5-17.5V0H126a7.5 7.5 0 0 0-7.5 7.5v20A17.52 17.52 0 0 0 136 45h240a17.52 17.52 0 0 0 15.79-10Z"></path><path fill="#8aa8bd" d="M431 15H81a7.5 7.5 0 0 1 0-15h350a7.5 7.5 0 0 1 0 15Z"></path></svg>